<?xml version="1.0"?><svg fill="#000000" xmlns="http://www.w3.org/2000/svg"  viewBox="0 0 50 50" width="50px" height="50px">    <path d="M 11 2 C 9.343 2 8 3.343 8 5 L 8 45 C 8 46.657 9.343 48 11 48 L 39 48 C 40.657 48 42 46.657 42 45 L 42 18 L 42 15 L 42 14.585938 L 29.414062 2 L 29 2 L 26 2 L 11 2 z M 29 4.4140625 L 39.585938 15 L 31 15 C 29.895 15 29 14.105 29 13 L 29 4.4140625 z M 18.5 24.5 C 19.328 24.5 20 25.172 20 26 C 20 26.828 19.328 27.5 18.5 27.5 C 17.672 27.5 17 26.828 17 26 C 17 25.172 17.672 24.5 18.5 24.5 z M 22 25 L 33 25 L 33 27 L 22 27 L 22 25 z M 18.5 29.5 C 19.328 29.5 20 30.172 20 31 C 20 31.828 19.328 32.5 18.5 32.5 C 17.672 32.5 17 31.828 17 31 C 17 30.172 17.672 29.5 18.5 29.5 z M 22 30 L 33 30 L 33 32 L 22 32 L 22 30 z M 18.5 34.5 C 19.328 34.5 20 35.172 20 36 C 20 36.828 19.328 37.5 18.5 37.5 C 17.672 37.5 17 36.828 17 36 C 17 35.172 17.672 34.5 18.5 34.5 z M 22 35 L 33 35 L 33 37 L 22 37 L 22 35 z"/></svg>